<mxfile host="app.diagrams.net" modified="2023-06-01T22:23:40.631Z" agent="Mozilla/5.0 (Windows NT 10.0; Win64; x64) AppleWebKit/537.36 (KHTML, like Gecko) Chrome/113.0.0.0 Safari/537.36" etag="CqH0-wHkN7t2FQdS6KRg" version="21.3.6" type="device">
  <diagram id="MWUjXanvxYF3tzN_ReU4" name="Page-1">
    <mxGraphModel dx="1120" dy="452" grid="1" gridSize="10" guides="1" tooltips="1" connect="1" arrows="1" fold="1" page="1" pageScale="1.25" pageWidth="827" pageHeight="1169" math="0" shadow="0">
      <root>
        <mxCell id="0" />
        <mxCell id="1" parent="0" />
        <mxCell id="XXCrunkc6zm3eNyf_ykf-1" value="" style="group" parent="1" vertex="1" connectable="0">
          <mxGeometry x="130" y="60" width="755" height="950" as="geometry" />
        </mxCell>
        <mxCell id="XXCrunkc6zm3eNyf_ykf-2" value="" style="rounded=0;whiteSpace=wrap;html=1;" parent="XXCrunkc6zm3eNyf_ykf-1" vertex="1">
          <mxGeometry x="245" width="510" height="950" as="geometry" />
        </mxCell>
        <mxCell id="XXCrunkc6zm3eNyf_ykf-3" value="&lt;font style=&quot;font-size: 16px;&quot;&gt;&lt;u&gt;SingleQuestion Page&lt;/u&gt;&lt;/font&gt;" style="text;html=1;strokeColor=none;fillColor=none;align=center;verticalAlign=middle;whiteSpace=wrap;rounded=0;" parent="XXCrunkc6zm3eNyf_ykf-1" vertex="1">
          <mxGeometry x="360" y="20" width="290" height="30" as="geometry" />
        </mxCell>
        <mxCell id="XXCrunkc6zm3eNyf_ykf-4" style="edgeStyle=orthogonalEdgeStyle;rounded=0;orthogonalLoop=1;jettySize=auto;html=1;exitX=0.5;exitY=1;exitDx=0;exitDy=0;" parent="XXCrunkc6zm3eNyf_ykf-1" source="XXCrunkc6zm3eNyf_ykf-2" target="XXCrunkc6zm3eNyf_ykf-2" edge="1">
          <mxGeometry relative="1" as="geometry" />
        </mxCell>
        <mxCell id="XXCrunkc6zm3eNyf_ykf-5" value="" style="group" parent="XXCrunkc6zm3eNyf_ykf-1" vertex="1" connectable="0">
          <mxGeometry y="90" width="650" height="420" as="geometry" />
        </mxCell>
        <mxCell id="XXCrunkc6zm3eNyf_ykf-6" value="" style="ellipse;whiteSpace=wrap;html=1;" parent="XXCrunkc6zm3eNyf_ykf-5" vertex="1">
          <mxGeometry x="360" width="290" height="110" as="geometry" />
        </mxCell>
        <mxCell id="XXCrunkc6zm3eNyf_ykf-7" value="&lt;font style=&quot;font-size: 16px;&quot;&gt;View Previous Answers&lt;/font&gt;" style="text;html=1;strokeColor=none;fillColor=none;align=center;verticalAlign=middle;whiteSpace=wrap;rounded=0;" parent="XXCrunkc6zm3eNyf_ykf-5" vertex="1">
          <mxGeometry x="360" y="40" width="290" height="30" as="geometry" />
        </mxCell>
        <mxCell id="XXCrunkc6zm3eNyf_ykf-8" value="" style="ellipse;whiteSpace=wrap;html=1;" parent="XXCrunkc6zm3eNyf_ykf-5" vertex="1">
          <mxGeometry x="360" y="150" width="290" height="110" as="geometry" />
        </mxCell>
        <mxCell id="XXCrunkc6zm3eNyf_ykf-9" value="&lt;font style=&quot;font-size: 16px;&quot;&gt;Add an answer&lt;/font&gt;" style="text;html=1;strokeColor=none;fillColor=none;align=center;verticalAlign=middle;whiteSpace=wrap;rounded=0;" parent="XXCrunkc6zm3eNyf_ykf-5" vertex="1">
          <mxGeometry x="360" y="190" width="290" height="30" as="geometry" />
        </mxCell>
        <mxCell id="XXCrunkc6zm3eNyf_ykf-10" value="" style="ellipse;whiteSpace=wrap;html=1;" parent="XXCrunkc6zm3eNyf_ykf-5" vertex="1">
          <mxGeometry x="360" y="310" width="290" height="110" as="geometry" />
        </mxCell>
        <mxCell id="XXCrunkc6zm3eNyf_ykf-11" value="&lt;font style=&quot;font-size: 16px;&quot;&gt;Comment on an answer&lt;br&gt;&lt;/font&gt;" style="text;html=1;strokeColor=none;fillColor=none;align=center;verticalAlign=middle;whiteSpace=wrap;rounded=0;" parent="XXCrunkc6zm3eNyf_ykf-5" vertex="1">
          <mxGeometry x="360" y="350" width="290" height="30" as="geometry" />
        </mxCell>
        <mxCell id="XXCrunkc6zm3eNyf_ykf-12" value="User" style="shape=umlActor;verticalLabelPosition=bottom;verticalAlign=top;html=1;outlineConnect=0;fontSize=16;" parent="XXCrunkc6zm3eNyf_ykf-5" vertex="1">
          <mxGeometry y="140" width="50" height="130" as="geometry" />
        </mxCell>
        <mxCell id="XXCrunkc6zm3eNyf_ykf-13" value="" style="endArrow=none;html=1;rounded=0;entryX=0;entryY=0.5;entryDx=0;entryDy=0;" parent="XXCrunkc6zm3eNyf_ykf-5" source="XXCrunkc6zm3eNyf_ykf-12" target="XXCrunkc6zm3eNyf_ykf-7" edge="1">
          <mxGeometry width="50" height="50" relative="1" as="geometry">
            <mxPoint x="440" y="110" as="sourcePoint" />
            <mxPoint x="140" y="-20" as="targetPoint" />
            <Array as="points">
              <mxPoint x="210" y="120" />
            </Array>
          </mxGeometry>
        </mxCell>
        <mxCell id="XXCrunkc6zm3eNyf_ykf-14" value="" style="endArrow=none;html=1;rounded=0;entryX=0;entryY=0.5;entryDx=0;entryDy=0;" parent="XXCrunkc6zm3eNyf_ykf-5" target="XXCrunkc6zm3eNyf_ykf-9" edge="1">
          <mxGeometry width="50" height="50" relative="1" as="geometry">
            <mxPoint x="50" y="220" as="sourcePoint" />
            <mxPoint x="360" y="81" as="targetPoint" />
            <Array as="points" />
          </mxGeometry>
        </mxCell>
        <mxCell id="XXCrunkc6zm3eNyf_ykf-15" value="" style="endArrow=none;html=1;rounded=0;entryX=0;entryY=0.5;entryDx=0;entryDy=0;" parent="XXCrunkc6zm3eNyf_ykf-5" target="XXCrunkc6zm3eNyf_ykf-11" edge="1">
          <mxGeometry width="50" height="50" relative="1" as="geometry">
            <mxPoint x="40" y="240" as="sourcePoint" />
            <mxPoint x="490" y="190" as="targetPoint" />
          </mxGeometry>
        </mxCell>
        <mxCell id="7CeNgh-cCIr8H-s7O-jD-1" value="" style="ellipse;whiteSpace=wrap;html=1;" vertex="1" parent="XXCrunkc6zm3eNyf_ykf-1">
          <mxGeometry x="360" y="540" width="290" height="110" as="geometry" />
        </mxCell>
        <mxCell id="7CeNgh-cCIr8H-s7O-jD-2" value="" style="ellipse;whiteSpace=wrap;html=1;" vertex="1" parent="XXCrunkc6zm3eNyf_ykf-1">
          <mxGeometry x="360" y="690" width="290" height="110" as="geometry" />
        </mxCell>
        <mxCell id="7CeNgh-cCIr8H-s7O-jD-3" value="&lt;font style=&quot;font-size: 16px;&quot;&gt;Up/Down Vote an answer&lt;br&gt;&lt;/font&gt;" style="text;html=1;strokeColor=none;fillColor=none;align=center;verticalAlign=middle;whiteSpace=wrap;rounded=0;" vertex="1" parent="XXCrunkc6zm3eNyf_ykf-1">
          <mxGeometry x="360" y="580" width="290" height="30" as="geometry" />
        </mxCell>
        <mxCell id="7CeNgh-cCIr8H-s7O-jD-4" value="&lt;font style=&quot;font-size: 16px;&quot;&gt;Report an answer&lt;br&gt;&lt;/font&gt;" style="text;html=1;strokeColor=none;fillColor=none;align=center;verticalAlign=middle;whiteSpace=wrap;rounded=0;" vertex="1" parent="XXCrunkc6zm3eNyf_ykf-1">
          <mxGeometry x="360" y="730" width="290" height="30" as="geometry" />
        </mxCell>
        <mxCell id="7CeNgh-cCIr8H-s7O-jD-9" value="" style="ellipse;whiteSpace=wrap;html=1;" vertex="1" parent="XXCrunkc6zm3eNyf_ykf-1">
          <mxGeometry x="360" y="830" width="290" height="110" as="geometry" />
        </mxCell>
        <mxCell id="7CeNgh-cCIr8H-s7O-jD-10" value="&lt;font style=&quot;font-size: 16px;&quot;&gt;Edit an answer&lt;br&gt;&lt;/font&gt;" style="text;html=1;strokeColor=none;fillColor=none;align=center;verticalAlign=middle;whiteSpace=wrap;rounded=0;" vertex="1" parent="XXCrunkc6zm3eNyf_ykf-1">
          <mxGeometry x="360" y="870" width="290" height="30" as="geometry" />
        </mxCell>
        <mxCell id="7CeNgh-cCIr8H-s7O-jD-7" value="" style="endArrow=none;html=1;rounded=0;entryX=0;entryY=0.5;entryDx=0;entryDy=0;" edge="1" parent="1" target="7CeNgh-cCIr8H-s7O-jD-3">
          <mxGeometry width="50" height="50" relative="1" as="geometry">
            <mxPoint x="180" y="410" as="sourcePoint" />
            <mxPoint x="500" y="525" as="targetPoint" />
          </mxGeometry>
        </mxCell>
        <mxCell id="7CeNgh-cCIr8H-s7O-jD-8" value="" style="endArrow=none;html=1;rounded=0;entryX=0;entryY=0.5;entryDx=0;entryDy=0;" edge="1" parent="1" target="7CeNgh-cCIr8H-s7O-jD-4">
          <mxGeometry width="50" height="50" relative="1" as="geometry">
            <mxPoint x="180" y="420" as="sourcePoint" />
            <mxPoint x="500" y="665" as="targetPoint" />
          </mxGeometry>
        </mxCell>
        <mxCell id="7CeNgh-cCIr8H-s7O-jD-11" value="" style="endArrow=none;html=1;rounded=0;entryX=0;entryY=0.5;entryDx=0;entryDy=0;" edge="1" parent="1" target="7CeNgh-cCIr8H-s7O-jD-10">
          <mxGeometry width="50" height="50" relative="1" as="geometry">
            <mxPoint x="180" y="440" as="sourcePoint" />
            <mxPoint x="500" y="815" as="targetPoint" />
          </mxGeometry>
        </mxCell>
      </root>
    </mxGraphModel>
  </diagram>
</mxfile>
